<?xml version="1.0" encoding="utf-8"?>
<!-- Generator: Adobe Illustrator 25.2.1, SVG Export Plug-In . SVG Version: 6.00 Build 0)  -->
<svg version="1.1" id="Layer_1" xmlns="http://www.w3.org/2000/svg" xmlns:xlink="http://www.w3.org/1999/xlink" x="0px" y="0px"
	 viewBox="0 0 972 612" style="enable-background:new 0 0 972 612;" xml:space="preserve">
<style type="text/css">
	.st0{fill:#102B49;}
</style>
<path class="st0" d="M213.6,313.3L188.8,60.8h-119l42.8,344.8h50.3h59h74.8L372.9,269l-87.4-77.3L213.6,313.3z M362.8,60.8
	l-76.6,129.8h133l76.6-129.8H362.8z"/>
<path class="st0" d="M649.4,313.3L801.5,60.8h129.8L731.8,405.7h-61.1h-59h-74.8L520.7,269l117.6-76.2L649.4,313.3z M625,60.8
	l13.3,130.9L511,190.6L494.5,60.8H625z"/>
<polygon class="st0" points="536.8,405.7 433.6,315.4 296.6,405.7 320.4,405.7 433.6,329.1 519.9,405.7 "/>
<path class="st0" d="M110.7,458.8h30.4l8.5,54c0.6,4.9,0.9,8.5,0.9,10.9h0.5c0.8-2.7,2.4-6.3,4.6-10.9l27.6-54h32.7l-51,89.7h-34.6
	L110.7,458.8z"/>
<path class="st0" d="M235.8,532.9c3.5,0,6.4-1,8.7-3c2.4-2.1,4.1-4.7,5.2-7.7c1.1-3,1.6-6,1.6-9c0-4.4-1.1-7.5-3.4-9.5
	c-2.3-1.9-5.2-2.9-8.7-2.9c-3.5,0-6.5,1.1-8.9,3.2c-2.4,2-4.1,4.5-5.2,7.6s-1.6,6-1.6,9c0,4.4,1.1,7.5,3.4,9.5
	C229.3,531.9,232.2,532.9,235.8,532.9z M235,550.3c-10.7,0-20.1-2.2-28-6.7c-7.9-4.5-11.8-12.4-11.8-23.5c0-6.5,1.6-12.5,4.7-18.1
	s8-10.1,14.7-13.5c6.8-3.5,15.2-5.2,25.2-5.2c10.8,0,20.1,2.3,28,6.8c7.9,4.5,11.8,12.2,11.8,23.4c0,6.5-1.6,12.5-4.7,18.1
	c-3.1,5.6-8.1,10.1-14.8,13.5C253.4,548.6,245,550.3,235,550.3z"/>
<path class="st0" d="M286.1,485.3h13.7l2.4-14.1l29.6-10.1l-4.2,24.2h19.8l-3,17.2h-19.8l-2.7,15.3c-0.2,1.3-0.3,2.3-0.3,2.9
	c0,2.8,0.9,4.8,2.7,6.1c1.9,1.3,4.6,1.9,8.1,1.9c2.8,0,5.2-0.2,7.2-0.5l-3.4,20c-2.6,0.7-5.2,1.1-7.6,1.4c-2.4,0.3-5.4,0.4-9,0.4
	c-8.3,0-14.8-1.6-19.6-4.7c-4.7-3.1-7.1-8.8-7.1-17c0-2.9,0.3-5.9,0.9-9.1l2.8-16.5H283L286.1,485.3z"/>
<path class="st0" d="M402,509c0.3-0.4,0.4-1.1,0.4-2.1c0-2.6-1.2-4.7-3.5-6.3c-2.4-1.7-5.5-2.5-9.4-2.5c-4.3,0-7.7,1-10.3,3
	c-2.4,1.9-4,4.6-4.7,8H402z M428.1,511.3c0,4-0.5,7.7-1.5,11.2h-52.6c0.5,3.5,2.2,6.1,5.1,7.7s6.2,2.4,10,2.4c4,0,7.1-0.7,9.4-2
	c2.3-1.3,4.2-3.1,5.7-5.3l18.9,9.1c-7.4,10.6-19.3,15.9-35.7,15.9c-10.7,0-20.1-2.3-28.1-6.8c-7.9-4.5-11.9-12.3-11.9-23.4
	c0-6.1,1.4-12,4.3-17.6c2.9-5.6,7.6-10.2,14.1-13.8c6.5-3.6,14.8-5.4,25-5.4c10.4,0,19.2,2.2,26.5,6.6
	C424.5,494.2,428.1,501.3,428.1,511.3z"/>
<path class="st0" d="M427.9,458.8h30.4l8.5,54c0.6,4.9,0.9,8.5,0.9,10.9h0.5c0.8-2.7,2.4-6.3,4.6-10.9l27.6-54H533l-51,89.7h-34.6
	L427.9,458.8z"/>
<path class="st0" d="M567,509c0.3-0.4,0.4-1.1,0.4-2.1c0-2.6-1.2-4.7-3.5-6.3c-2.4-1.7-5.5-2.5-9.4-2.5c-4.3,0-7.7,1-10.3,3
	c-2.4,1.9-4,4.6-4.7,8H567z M593.1,511.3c0,4-0.5,7.7-1.5,11.2H539c0.5,3.5,2.2,6.1,5.1,7.7s6.2,2.4,10,2.4c4,0,7.1-0.7,9.4-2
	c2.3-1.3,4.2-3.1,5.7-5.3l18.9,9.1c-7.4,10.6-19.3,15.9-35.7,15.9c-10.7,0-20.1-2.3-28.1-6.8c-7.9-4.5-11.9-12.3-11.9-23.4
	c0-6.1,1.4-12,4.3-17.6c2.9-5.6,7.6-10.2,14.1-13.8c6.5-3.6,14.8-5.4,25-5.4c10.4,0,19.2,2.2,26.5,6.6
	C589.4,494.2,593.1,501.3,593.1,511.3z"/>
<path class="st0" d="M599.5,485.3h13.7l2.4-14.1l29.6-10.1l-4.2,24.2h19.8l-3,17.2H638l-2.7,15.3c-0.2,1.3-0.3,2.3-0.3,2.9
	c0,2.8,0.9,4.8,2.7,6.1c1.9,1.3,4.6,1.9,8.1,1.9c2.8,0,5.2-0.2,7.2-0.5l-3.4,20c-2.6,0.7-5.2,1.1-7.6,1.4c-2.4,0.3-5.4,0.4-9,0.4
	c-8.3,0-14.8-1.6-19.6-4.7c-4.7-3.1-7.1-8.8-7.1-17c0-2.9,0.3-5.9,0.9-9.1l2.8-16.5h-13.6L599.5,485.3z"/>
<path class="st0" d="M695.6,550.3c-9,0-17.1-1.1-24.1-3.3c-6.9-2.2-12.4-5.1-16.3-8.8l14.6-14.1c3.8,2.8,8.3,4.9,13.4,6.4
	c5.2,1.5,10.6,2.3,16.2,2.3c3,0,5.1-0.3,6.3-0.8c1.4-0.5,2-1.3,2-2.5c0-0.9-0.4-1.6-1.3-2c-0.8-0.4-2.2-0.8-4.3-1.1l-14.8-1.8
	c-8.2-1.2-13.9-3.3-17.2-6.4c-3.3-3.1-4.9-7.2-4.9-12.2c0-6.9,2.8-12.4,8.4-16.4c5.6-4,14.5-6.1,26.7-6.1c15,0,27.7,3,37.9,9.1
	l-13.7,14.6c-3.5-2.2-7.7-3.9-12.5-5.1c-4.8-1.2-9.8-1.8-14.9-1.8c-2.7,0-4.6,0.2-5.6,0.6c-1,0.3-1.5,1.1-1.5,2.1
	c0,0.8,0.4,1.4,1.1,1.9c0.8,0.4,2.1,0.8,4.1,1.1l15.7,2.1c7.7,1.3,13.2,3.3,16.5,6.2c3.3,2.9,4.9,6.9,4.9,12.2
	c0,6.9-2.8,12.6-8.4,17C718.4,548.1,709,550.3,695.6,550.3z"/>
</svg>
